# AST/ASF file generated using VICON BodyLanguage
# -----------------------------------------------
:version 1.10
:name VICON
:units
  mass 1.0
  length 0.45
  angle deg
:documentation
   .ast/.asf automatically generated from VICON data using
   VICON BodyBuilder and BodyLanguage model FoxedUp or BRILLIANT.MOD
:root
   order TX TY TZ RX RY RZ
   axis XYZ
   position 0 0 0  
   orientation 0 0 0 
:bonedata
  begin
     id 1 
     name lhipjoint
     direction 0.541323 -0.757556 0.364798 
     length 2.47576 
     axis 0 0 0  XYZ
  end
  begin
     id 2 
     name lfemur
     direction 0.34202 -0.939693 0  
     length 7.46493  
     axis 0 0 20  XYZ
    dof rx ry rz
    limits (-160.0 20.0)
           (-70.0 70.0)
           (-60.0 70.0)
  end
  begin
     id 3 
     name ltibia
     direction 0.34202 -0.939693 0   
     length 7.73805   
     axis 0 0 20   XYZ
    dof rx
    limits (-10.0 170.0)
  end
  begin
     id 4 
     name lfoot
     direction 0.107174 -0.294458 0.949636   
     length 2.25864   
     axis -90 7.62852e-016 20   XYZ
    dof rx rz
    limits (-45.0 90.0)
           (-70.0 20.0)
  end
  begin
     id 5 
     name ltoes
     direction 1.53606e-011 -4.21934e-011 1   
     length 1.12451   
     axis -90 7.62852e-016 20   XYZ
    dof rx
    limits (-90.0 20.0)
  end
  begin
     id 6 
     name rhipjoint
     direction -0.524745 -0.766967 0.36933   
     length 2.44538  
     axis 0 0 0  XYZ 
  end
  begin
     id 7 
     name rfemur
     direction -0.34202 -0.939693 0   
     length 7.61604   
     axis 0 0 -20   XYZ
    dof rx ry rz
    limits (-160.0 20.0)
           (-70.0 70.0)
           (-70.0 60.0)
  end
  begin
     id 8 
     name rtibia
     direction -0.34202 -0.939693 0   
     length 7.61056   
     axis 0 0 -20   XYZ
    dof rx
    limits (-10.0 170.0)
 end
 begin
     id 9 
     name rfoot
     direction -0.12616 -0.346623 0.929482   
     length 2.46372  
     axis -90 -7.62852e-016 -20   XYZ
    dof rx rz
    limits (-45.0 90.0)
           (-20.0 70.0)
  end
  begin
     id 10 
     name rtoes
     direction -1.53531e-011 -4.22004e-011 1   
     length 1.21611   
     axis -90 -7.62852e-016 -20   XYZ
    dof rx
    limits (-90.0 20.0)
  end
  begin
     id 11 
     name lowerback
     direction -0.000778023 0.997293 -0.0735223   
     length 2.06139   
     axis 0 0 0   XYZ
    dof rx ry rz
    limits (-20.0 45.0)
           (-30.0 30.0)
           (-30.0 30.0)
  end
  begin
     id 12 
     name upperback
     direction 0.0222598 0.999722 -0.0078355   
     length 2.06383   
     axis 0 0 0   XYZ
    dof rx ry rz
    limits (-20.0 45.0)
           (-30.0 30.0)
           (-30.0 30.0)
  end
  begin
     id 13 
     name thorax
     direction 0.0219654 0.999405 0.0265994   
     length 2.07163   
     axis 0 0 0   XYZ
    dof rx ry rz
    limits (-20.0 45.0)
           (-30.0 30.0)
           (-30.0 30.0)
  end
  begin
     id 14 
     name lowerneck
     direction 0.0213282 0.988147 0.15202   
     length 1.75969   
     axis 0 0 0   XYZ
    dof rx ry rz
    limits (-20.0 45.0)
           (-30.0 30.0)
           (-30.0 30.0)
  end
  begin
     id 15 
     name upperneck
     direction -0.0546456 0.982624 -0.177379   
     length 1.79244   
     axis 0 0 0   XYZ
    dof rx ry rz
    limits (-20.0 45.0)
           (-30.0 30.0)
           (-30.0 30.0)
  end
  begin
     id 16
     name head
     direction -0.0199987 0.996855 -0.076686  
     length 1.80555  
     axis 0 0 0   XYZ
    dof rx ry rz
    limits (-20.0 45.0)
           (-30.0 30.0)
           (-30.0 30.0)
  end
  begin
     id 17 
     name lclavicle
     direction 0.929565 0.363219 -0.063096  
     length 3.55722  
     axis 0 0 0   XYZ
    dof ry rz
    limits (-20.0 10.0)
           (0.0 20.0)
  end
  begin
     id 18 
     name lhumerus
     direction 1 -4.48993e-011 -2.36203e-027   
     length 4.92785   
     axis 180 -30 -90   XYZ
    dof rx ry rz
    limits (-60.0 90.0)
           (-90.0 90.0)
           (-90.0 90.0)
  end
  begin
     id 19
     name lradius
     direction 1 -4.48947e-011 2.02997e-027   
     length 3.44052   
     axis 180 -30 -90   XYZ
    dof rx
    limits (-10.0 170.0)
  end
  begin
     id 20
     name lwrist
     direction 1 -4.48962e-011 1.45991e-027   
     length 1.72026   
     axis 1.49639e-024 90 90   XYZ
    dof ry
    limits (-180.0 0.0)
 end
  begin
     id 21 
     name lhand
     direction 1 -4.48984e-011 2.91906e-027   
     length 0.654326   
     axis -1.863e-015 90 90   XYZ
    dof rx rz
    limits (-90.0 90.0)
           (-45.0 45.0)
  end
  begin
     id 22 
     name lfingers
     direction 1 -4.48961e-011 5.83968e-027   
     length 0.527534   
     axis -3.72598e-015 90 90   XYZ
    dof rx
    limits (0.0 90.0)
  end
  begin
     id 23
     name lthumb
     direction 0.707107 -6.34963e-011 0.707107   
     length 0.757437   
     axis -90 45 -6.68868e-015   XYZ
    dof rx rz
    limits (-45.0 45.0)
           (-45.0 45.0)
  end
  begin
     id 24 
     name rclavicle
     direction -0.902944 0.422599 -0.0781198   
     length 3.54432  
     axis 0 0 0   XYZ 
    dof ry rz
    limits (-10.0 20.0)
           (-20.0 0.0)
  end
  begin
     id 25 
     name rhumerus
     direction -1 -4.48953e-011 -4.75835e-028  
     length 5.09181   
     axis 180 30 90   XYZ
    dof rx ry rz
    limits (-90.0 60.0)
           (-90.0 90.0)
           (-90.0 90.0)
  end
  begin
     id 26 
     name rradius
     direction -1 -4.48986e-011 -3.25889e-027   
     length 3.49865   
     axis 180 30 90   XYZ
    dof rx
    limits (-10.0 170.0)
  end
  begin
     id 27 
     name rwrist
     direction -1 -4.48963e-011 1.45989e-027   
     length 1.74933   
     axis 1.49639e-024 -90 -90   XYZ
    dof ry
    limits (-180.0 0.0)
  end
  begin
     id 28
     name rhand
     direction -1 -4.49003e-011 2.91844e-027   
     length 0.66641   
     axis -1.863e-015 -90 -90   XYZ
    dof rx rz
    limits (-90.0 90.0)
           (-45.0 45.0)
  end
  begin
     id 29
     name rfingers
     direction -1 -4.48973e-011 5.83886e-027   
     length 0.537277   
     axis -3.72598e-015 -90 -90   XYZ
    dof rx
    limits (0.0 90.0)
  end
  begin
     id 30
     name rthumb
     direction -0.707107 -6.34976e-011 0.707107   
     length 0.771425   
     axis -90 -45 6.68868e-015   XYZ
    dof rx rz
    limits (-45.0 45.0)
           (-45.0 45.0)
  end
:hierarchy
  begin
    root lhipjoint rhipjoint lowerback
    lhipjoint lfemur
    lfemur ltibia
    ltibia lfoot
    lfoot ltoes
    rhipjoint rfemur
    rfemur rtibia
    rtibia rfoot
    rfoot rtoes
    lowerback upperback
    upperback thorax
    thorax lowerneck lclavicle rclavicle
    lowerneck upperneck
    upperneck head
    lclavicle lhumerus
    lhumerus lradius
    lradius lwrist
    lwrist lhand lthumb
    lhand lfingers
    rclavicle rhumerus
    rhumerus rradius
    rradius rwrist
    rwrist rhand rthumb
    rhand rfingers
  end

#!OML:ASF H:\LiuWeirdWalks\Patient Classification 1\Patient 1\Session 1\male.ASF
:FULLY-SPECIFIED
:DEGREES
91
root 0.235625 17.8431 -28.9217 -0.0884114 25.8061 -2.0681
lowerback 1.39747 5.28743 -0.236124
upperback -0.191825 7.08995 2.75359
thorax -1.35407 3.56335 2.75371
lowerneck 10.5566 21.6505 8.92656
upperneck -8.13017 29.2622 -15.8623
head -0.418754 15.1502 -6.06393
rclavicle 8.99439e-014 1.51076e-014
rhumerus -37.8886 -13.9438 -63.3766
rradius 33.0094
rwrist -9.97454
rhand -21.6293 -4.01968
rfingers 7.12502
rthumb 4.76677 -33.9461
lclavicle 8.99439e-014 1.51076e-014
lhumerus -27.7232 23.0573 78.1539
lradius 23.4026
lwrist 7.49172
lhand -18.3427 -3.59956
lfingers 7.12502
lthumb 7.9396 26.2313
rfemur 0.92235 -10.3366 19.3993
rtibia 25.0222
rfoot -17.6539 -37.2528
rtoes 1.15862
lfemur -9.80007 -7.97133 -12.9413
ltibia 28.2795
lfoot -13.4174 5.44543
ltoes -10.4465
92
root 0.240511 17.8436 -28.9279 -0.0783947 25.7051 -2.06298
lowerback 1.34546 5.26408 -0.315455
upperback -0.130865 7.05679 2.82346
thorax -1.27914 3.54728 2.87803
lowerneck 10.4996 21.6438 8.93228
upperneck -8.12815 29.2506 -15.9785
head -0.391881 15.1489 -6.08479
rclavicle -5.17648e-014 -1.19271e-014
rhumerus -37.7489 -13.84 -63.3683
rradius 33.172
rwrist -10.1067
rhand -21.6362 -4.06462
rfingers 7.12502
rthumb 4.76002 -33.9911
lclavicle -5.17648e-014 -1.19271e-014
lhumerus -27.5566 22.8459 78.4331
lradius 23.599
lwrist 7.71034
lhand -18.318 -3.53891
lfingers 7.12502
lthumb 7.96343 26.2911
rfemur 0.878577 -10.3186 19.3625
rtibia 25.0456
rfoot -17.6139 -37.193
rtoes 1.14702
lfemur -9.78924 -7.90971 -12.9621
ltibia 28.2624
lfoot -13.4152 5.4482
ltoes -10.4413
93
root 0.244564 17.8439 -28.9335 -0.082398 25.6096 -2.08117
lowerback 1.2826 5.23427 -0.393839
upperback -0.0638861 7.0152 2.9119
thorax -1.19356 3.52693 3.02253
lowerneck 10.4876 21.643 8.9151
upperneck -8.17504 29.2416 -16.1108
head -0.386623 15.1523 -6.11716
rclavicle 3.09234e-014 0
rhumerus -37.6088 -13.7184 -63.3532
rradius 33.3214
rwrist -10.2114
rhand -21.5993 -4.09566
rfingers 7.12502
rthumb 4.79566 -34.0214
lclavicle 3.09234e-014 0
lhumerus -27.3953 22.6966 78.7006
lradius 23.7756
lwrist 7.852
lhand -18.2215 -3.51099
lfingers 7.12502
lthumb 8.05659 26.3154
rfemur 0.846555 -10.2646 19.3631
rtibia 25.0568
rfoot -17.5825 -37.1689
rtoes 1.14306
lfemur -9.78189 -7.83053 -12.9522
ltibia 28.2556
lfoot -13.4213 5.42192
ltoes -10.4465
94
root 0.247661 17.8441 -28.9382 -0.101013 25.5202 -2.1208
lowerback 1.22929 5.20356 -0.459726
upperback -0.00210759 6.97292 3.00292
thorax -1.1172 3.50612 3.16163
lowerneck 10.5055 21.6408 8.8895
upperneck -8.24647 29.2289 -16.2366
head -0.395811 15.155 -6.15347
rclavicle 5.18331e-014 1.03368e-014
rhumerus -37.4956 -13.603 -63.3403
rradius 33.4645
rwrist -10.3056
rhand -21.5527 -4.09653
rfingers 7.12502
rthumb 4.84068 -34.0212
lclavicle 5.18331e-014 1.03368e-014
lhumerus -27.243 22.593 78.9359
lradius 23.9302
lwrist 7.94194
lhand -18.0625 -3.50006
lfingers 7.12502
lthumb 8.20998 26.3204
rfemur 0.826727 -10.1736 19.4002
rtibia 25.0562
rfoot -17.5515 -37.1869
rtoes 1.13456
lfemur -9.77316 -7.744 -12.9145
ltibia 28.2567
lfoot -13.4341 5.37982
ltoes -10.4513
95
root 0.250336 17.8444 -28.942 -0.12553 25.4321 -2.17109
lowerback 1.19923 5.172 -0.506935
upperback 0.0451457 6.93021 3.08345
thorax -1.06496 3.48504 3.27673
lowerneck 10.5605 21.642 8.84666
upperneck -8.32715 29.2193 -16.344
head -0.418204 15.1601 -6.18954
rclavicle 1.52505e-013 1.27222e-014
rhumerus -37.4077 -13.5009 -63.3411
rradius 33.5896
rwrist -10.38
rhand -21.5003 -4.07721
rfingers 7.12502
rthumb 4.89131 -34.0008
lclavicle 1.52505e-013 1.27222e-014
lhumerus -27.1318 22.4356 79.1433
lradius 24.1111
lwrist 8.0699
lhand -17.8958 -3.45289
lfingers 7.12502
lthumb 8.37085 26.3612
rfemur 0.814896 -10.0561 19.457
rtibia 25.0465
rfoot -17.5297 -37.2264
rtoes 1.12928
lfemur -9.76399 -7.65226 -12.8626
ltibia 28.2614
lfoot -13.4499 5.32963
ltoes -10.4836
96
root 0.253189 17.8449 -28.9459 -0.145734 25.344 -2.2246
lowerback 1.18961 5.14829 -0.533348
upperback 0.0760798 6.8985 3.14516
thorax -1.03661 3.46943 3.35795
lowerneck 10.6247 21.6374 8.82209
upperneck -8.36286 29.2085 -16.4342
head -0.428851 15.1631 -6.22067
rclavicle 5.31873e-014 -7.95139e-016
rhumerus -37.3557 -13.4383 -63.3482
rradius 33.6991
rwrist -10.4191
rhand -21.4422 -4.0326
rfingers 7.12502
rthumb 4.9474 -33.9548
lclavicle 5.31873e-014 -7.95139e-016
lhumerus -27.0485 22.1991 79.3358
lradius 24.317
lwrist 8.23954
lhand -17.7402 -3.35039
lfingers 7.12502
lthumb 8.52107 26.4577
rfemur 0.797915 -9.93535 19.5173
rtibia 25.0342
rfoot -17.5093 -37.2652
rtoes 1.12575
lfemur -9.76109 -7.56151 -12.8083
ltibia 28.2654
lfoot -13.4632 5.28618
ltoes -10.5152
97
root 0.256681 17.8458 -28.9499 -0.151672 25.2554 -2.2672
lowerback 1.20657 5.12979 -0.530969
upperback 0.0847643 6.87432 3.17179
thorax -1.03863 3.45747 3.38347
lowerneck 10.6809 21.6332 8.80317
upperneck -8.35741 29.2025 -16.4821
head -0.43136 15.1651 -6.23775
rclavicle -1.57885e-013 -1.98785e-014
rhumerus -37.3447 -13.4162 -63.3807
rradius 33.7917
rwrist -10.4292
rhand -21.4009 -3.94592
rfingers 7.12502
rthumb 4.9873 -33.8672
lclavicle -1.57885e-013 -1.98785e-014
lhumerus -26.9916 21.8902 79.4904
lradius 24.5351
lwrist 8.44743
lhand -17.631 -3.18838
lfingers 7.12502
lthumb 8.62642 26.6154
rfemur 0.769933 -9.83169 19.5599
rtibia 25.0233
rfoot -17.4799 -37.284
rtoes 1.11785
lfemur -9.76664 -7.47789 -12.7692
ltibia 28.2666
lfoot -13.4708 5.25785
ltoes -10.5239
98
root 0.261091 17.8469 -28.9544 -0.135942 25.1695 -2.28473
lowerback 1.21841 5.11825 -0.53073
upperback 0.0902033 6.85895 3.17543
thorax -1.03908 3.44974 3.38672
lowerneck 10.6735 21.6181 8.84326
upperneck -8.2793 29.1934 -16.5157
head -0.397145 15.1603 -6.24208
rclavicle 1.38913e-013 5.56597e-015
rhumerus -37.3478 -13.4322 -63.4207
rradius 33.8671
rwrist -10.4256
rhand -21.3658 -3.86112
rfingers 7.12502
rthumb 5.02119 -33.7816
lclavicle 1.38913e-013 5.56597e-015
lhumerus -26.93 21.5476 79.6357
lradius 24.7506
lwrist 8.64401
lhand -17.5522 -3.00815
lfingers 7.12502
lthumb 8.70244 26.7925
rfemur 0.727962 -9.76061 19.5661
rtibia 25.0166
rfoot -17.429 -37.2741
rtoes 1.09409
lfemur -9.78185 -7.40672 -12.7619
ltibia 28.2648
lfoot -13.4715 5.24948
ltoes -10.5005
99
root 0.26623 17.8483 -28.9592 -0.113112 25.0831 -2.29797
lowerback 1.22439 5.10951 -0.521225
upperback 0.0973135 6.84716 3.17099
thorax -1.03268 3.4436 3.37722
lowerneck 10.636 21.5955 8.94541
upperneck -8.16088 29.185 -16.5533
head -0.337144 15.1528 -6.24468
rclavicle 1.47449e-013 -1.19271e-014
rhumerus -37.3591 -13.4586 -63.4655
rradius 33.9308
rwrist -10.4204
rhand -21.3366 -3.80396
rfingers 7.12502
rthumb 5.04933 -33.7238
lclavicle 1.47449e-013 -1.19271e-014
lhumerus -26.8605 21.2319 79.7665
lradius 24.9383
lwrist 8.76731
lhand -17.4684 -2.86084
lfingers 7.12502
lthumb 8.78332 26.9364
rfemur 0.678204 -9.71219 19.5586
rtibia 25.0127
rfoot -17.3693 -37.241
rtoes 1.06215
lfemur -9.80102 -7.35106 -12.7654
ltibia 28.2617
lfoot -13.4674 5.26532
ltoes -10.4456
100
root 0.271193 17.8495 -28.9638 -0.0929118 25.0153 -2.30928
lowerback 1.23203 5.09757 -0.518584
upperback 0.105584 6.83102 3.16699
thorax -1.0266 3.43532 3.37197
lowerneck 10.5707 21.5722 9.0648
upperneck -8.04529 29.1765 -16.5824
head -0.272838 15.1434 -6.24331
rclavicle -5.9449e-014 7.95139e-015
rhumerus -37.3818 -13.4899 -63.5075
rradius 33.9814
rwrist -10.4227
rhand -21.3245 -3.781
rfingers 7.12502
rthumb 5.06104 -33.7006
lclavicle -5.9449e-014 7.95139e-015
lhumerus -26.7679 21.0137 79.8735
lradius 25.062
lwrist 8.78276
lhand -17.3861 -2.75315
lfingers 7.12502
lthumb 8.86275 27.0407
rfemur 0.634263 -9.67674 19.55
rtibia 25.009
rfoot -17.3114 -37.2157
rtoes 1.02651
lfemur -9.81913 -7.3128 -12.7718
ltibia 28.26
lfoot -13.4652 5.2847
ltoes -10.3629
